<svg xmlns="http://www.w3.org/2000/svg" viewBox="0 0 46 47.5">
    <path opacity=".4" fill="#FAEF59" d="M38.417 11.575c0 4.346-3.686 7.869-8.233 7.869H17.07c-4.547 0-8.233-3.523-8.233-7.869s3.686-7.869 8.233-7.869h13.113c4.548.001 8.234 3.523 8.234 7.869z"/>
    <path fill="#70707A" d="M21.527 40.232v3.054h.643v.401h1.002v.468h1.742v-.468h1.008v-.401h.692v-3.054z"/>
    <path fill="#FAEF59" stroke="#4A597F" stroke-miterlimit="10" d="M16.603 12.631v4.08l14.346-.008v-4.072z"/>
    <path fill="#E1E1F1" stroke="#4A597F" stroke-miterlimit="10" d="M16.603 18.319s-.545 6.344 0 8.362c.34 1.261 2.629 4.517 2.629 4.517h1.043v6.144h.729v2.647h5.975v-2.647h.874v-6.144h.899s1.915-3.23 2.197-4.435c.481-2.056 0-8.444 0-8.444H16.603z"/>
</svg>
