<svg xmlns="http://www.w3.org/2000/svg" viewBox="0 0 46 47.5">
    <path fill="#E1E1F1" stroke="#4A597F" stroke-miterlimit="10" d="M40.536 12.395h-4.521l-3.897-6.08H14.813l-4.521 6.08H7.849V9.953H5.667v2.442h-.209a3.128 3.128 0 0 0-3.118 3.118V35.78a3.128 3.128 0 0 0 3.118 3.118h35.078a3.127 3.127 0 0 0 3.118-3.118V15.513a3.127 3.127 0 0 0-3.118-3.118z"/>
    <path opacity=".4" fill="#F4784A" d="M32.169 10.993a2.234 2.234 0 0 1-4.468 0V9.225a2.234 2.234 0 1 1 4.468 0v1.768z"/>
    <circle fill="#E1E1F1" stroke="#4A597F" stroke-miterlimit="10" cx="23.387" cy="25.179" r="11.537"/>
    <path fill="#EF5F31" d="M29.26 8.705h1.299v2.598H29.26z"/>
    <circle fill="#4A597F" cx="23.284" cy="25.284" r="9.354"/>
    <circle fill="#E8F6FE" cx="23.116" cy="25.396" r="7.598"/>
    <path fill="#D0EDF4" d="M19.65 31.144a7.598 7.598 0 0 1 7.598-7.598c1.22 0 2.368.294 3.39.806-.502-3.71-3.673-6.574-7.521-6.574a7.598 7.598 0 0 0-7.598 7.598 7.591 7.591 0 0 0 4.208 6.793 7.527 7.527 0 0 1-.077-1.025z"/>
    <circle fill="#908FC6" cx="21.568" cy="23.048" r="2.431"/>
    <circle fill="#FFF" cx="20.529" cy="21.359" r="1.049"/>
    <circle fill="#83C441" cx="23.024" cy="24.919" r="1.704"/>
</svg>
