<svg xmlns="http://www.w3.org/2000/svg" viewBox="0 0 46 47.5"><path fill="#E1E1F1" stroke="#000" stroke-miterlimit="10" d="M40.5 12.4H36l-3.9-6.1H14.8l-4.5 6.1H7.8V10H5.7v2.4h-.2c-1.7 0-3.1 1.4-3.1 3.1v20.3c0 1.7 1.4 3.1 3.1 3.1h35.1c1.7 0 3.1-1.4 3.1-3.1V15.5c0-1.7-1.4-3.1-3.2-3.1z"/><path opacity=".4" fill="#F4784A" d="M32.2 11c0 1.2-1 2.2-2.2 2.2-1.2 0-2.2-1-2.2-2.2V9.2C27.8 8 28.8 7 30 7c1.2 0 2.2 1 2.2 2.2V11z"/><circle fill="#E1E1F1" stroke="#000" stroke-miterlimit="10" cx="23.4" cy="25.2" r="11.5"/><path fill="#EF5F31" d="M29.3 8.7h1.3v2.6h-1.3z"/><circle cx="23.3" cy="25.3" r="9.4"/><circle fill="#E8F6FE" cx="23.1" cy="25.4" r="7.6"/><path fill="#D0EDF4" d="M19.6 31.1c0-4.2 3.4-7.6 7.6-7.6 1.2 0 2.4.3 3.4.8-.5-3.7-3.7-6.6-7.5-6.6-4.2 0-7.6 3.4-7.6 7.6 0 3 1.7 5.5 4.2 6.8 0-.3-.1-.6-.1-1z"/><circle fill="#908FC6" cx="21.6" cy="23" r="2.4"/><circle fill="#FFF" cx="20.5" cy="21.4" r="1"/><circle fill="#83C441" cx="23" cy="24.9" r="1.7"/></svg>