<?xml version="1.0" encoding="UTF-8"?><svg id="a" xmlns="http://www.w3.org/2000/svg" viewBox="0 0 32 32"><path d="M22.09,4H9.91c-3.26,0-5.91,2.65-5.91,5.91v12.18c0,3.26,2.65,5.91,5.91,5.91h12.18c3.26,0,5.91-2.65,5.91-5.91V9.91c0-3.26-2.65-5.91-5.91-5.91ZM12.04,23.24c0,.3-.25,.55-.56,.55h-2.21c-.31,0-.56-.25-.56-.55V13.87c0-.31,.25-.56,.56-.56h2.21c.31,0,.56,.25,.56,.56v9.37Zm-1.66-10.8c-1.18,0-2.13-.96-2.13-2.14s.95-2.13,2.13-2.13,2.13,.96,2.13,2.13-.95,2.14-2.13,2.14Zm13.37,10.88c0,.28-.23,.51-.52,.51h-2.29c-.28,0-.51-.23-.51-.51v-4.98h-.01c0-3.2-3.32-2.93-3.59-.34v5.27c0,.29-.23,.52-.51,.52h-2.3c-.28,0-.51-.23-.51-.52V13.83c0-.28,.23-.51,.51-.51h2.3c.28,0,.51,.23,.51,.51v.76c.08-.16,.86-1.44,3.09-1.46,.53,0,1.18,.13,1.57,.28,2.18,.83,2.26,3.49,2.26,4.53v5.38Z" fill="#F1EADB" /></svg>