<?xml version="1.0" standalone="no"?>
<!DOCTYPE svg PUBLIC "-//W3C//DTD SVG 20010904//EN"
 "http://www.w3.org/TR/2001/REC-SVG-20010904/DTD/svg10.dtd">
<svg version="1.0" xmlns="http://www.w3.org/2000/svg"
 width="548.000000pt" height="548.000000pt" viewBox="0 0 548.000000 548.000000"
 preserveAspectRatio="xMidYMid meet">
<metadata>
Created by potrace 1.11, written by Peter Selinger 2001-2013
</metadata>
<g transform="translate(0.000000,548.000000) scale(0.100000,-0.100000)"
fill="#000000" stroke="none">
<path d="M0 2740 l0 -2740 683 0 682 0 870 2130 870 2130 287 0 286 0 28 -72
c15 -40 377 -998 804 -2128 l777 -2055 97 -3 96 -3 0 2741 0 2740 -2740 0
-2740 0 0 -2740z"/>
<path d="M3317 3520 c-11 -25 -743 -1829 -794 -1957 -4 -10 156 -13 782 -13
746 0 787 1 780 18 -4 9 -171 451 -372 982 -201 531 -369 974 -373 985 -7 18
-10 16 -23 -15z"/>
<path d="M2336 1088 c-57 -137 -430 -1048 -437 -1066 l-9 -22 1393 0 1393 0
-210 560 -210 560 -953 0 -954 0 -13 -32z"/>
</g>
</svg>
