<svg xmlns="http://www.w3.org/2000/svg" viewBox="0 0 46 47.5"><path opacity=".4" fill="#FAEF59" d="M38.4 11.6c0 4.3-3.7 7.9-8.2 7.9H17.1c-4.5 0-8.2-3.5-8.2-7.9 0-4.3 3.7-7.9 8.2-7.9h13.1c4.5 0 8.2 3.5 8.2 7.9z"/><path fill="#70707A" d="M21.5 40.2v3.1h.7v.4h1v.5h1.7v-.5h1v-.4h.7v-3.1"/><path fill="#FAEF59" stroke="#000" stroke-miterlimit="10" d="M16.6 12.6v4.1h14.3v-4.1z"/><path fill="#E1E1F1" stroke="#000" stroke-miterlimit="10" d="M16.6 18.3s-.5 6.3 0 8.4c.3 1.3 2.6 4.5 2.6 4.5h1v6.1h.8V40h6v-2.6h.9v-6.1h.9s1.9-3.2 2.2-4.4c.5-2.1 0-8.4 0-8.4H16.6z"/></svg>