<svg xmlns="http://www.w3.org/2000/svg" viewBox="0 0 46 47.5">
    <path fill="#83C441" stroke="#4A597F" stroke-miterlimit="10" d="M357.062 14.69a2.8 2.8 0 0 1-2.8 2.8h-18.147a2.799 2.799 0 1 1 0-5.599h18.147a2.8 2.8 0 0 1 2.8 2.799z"/>
    <path fill="#EF5F31" stroke="#4A597F" stroke-miterlimit="10" d="M357.062 22.381a2.8 2.8 0 0 1-2.8 2.8h-18.147a2.799 2.799 0 1 1 0-5.599h18.147c1.547 0 2.8 1.253 2.8 2.799z"/>
    <path fill="#83C441" stroke="#4A597F" stroke-miterlimit="10" d="M357.062 30.341a2.8 2.8 0 0 1-2.8 2.8h-18.147a2.799 2.799 0 1 1 0-5.599h18.147c1.547 0 2.8 1.253 2.8 2.799z"/>
    <path fill="#E1E1F1" stroke="#4A597F" stroke-miterlimit="10" d="M-16.797 12.895h-4.521l-3.897-6.08H-42.52l-4.521 6.08h-2.442v-2.442h-2.183v2.442h-.208a3.128 3.128 0 0 0-3.118 3.118V36.28a3.128 3.128 0 0 0 3.118 3.118h35.078a3.127 3.127 0 0 0 3.118-3.118V16.013a3.129 3.129 0 0 0-3.119-3.118z"/>
    <path opacity=".4" fill="#F4784A" d="M-25.164 11.493a2.234 2.234 0 0 1-4.468 0V9.725a2.234 2.234 0 1 1 4.468 0v1.768z"/>
    <circle fill="#E1E1F1" stroke="#4A597F" stroke-miterlimit="10" cx="-33.946" cy="25.679" r="11.537"/>
    <path fill="#EF5F31" d="M-28.073 9.205h1.299v2.598h-1.299z"/>
    <circle fill="#4A597F" cx="-34.049" cy="25.784" r="9.354"/>
    <circle fill="#E8F6FE" cx="-34.217" cy="25.896" r="7.598"/>
    <path fill="#D0EDF4" d="M-37.683 31.644a7.598 7.598 0 0 1 7.598-7.598c1.22 0 2.368.294 3.39.806-.502-3.71-3.673-6.574-7.521-6.574a7.598 7.598 0 0 0-7.598 7.598 7.591 7.591 0 0 0 4.208 6.793 7.527 7.527 0 0 1-.077-1.025z"/>
    <circle fill="#908FC6" cx="-35.765" cy="23.548" r="2.431"/>
    <circle fill="#FFF" cx="-36.804" cy="21.859" r="1.049"/>
    <circle fill="#83C441" cx="-34.309" cy="25.419" r="1.704"/>
    <path fill="#E1E1F1" d="M14.372 32.46a6.13 6.13 0 0 1-6.122-6.122V11.382a6.13 6.13 0 0 1 6.122-6.122 6.128 6.128 0 0 1 6.121 6.122v14.957a6.128 6.128 0 0 1-6.121 6.121z"/>
    <path fill="#4A597F" d="M14.372 5.76a5.622 5.622 0 0 1 5.621 5.622v14.957a5.622 5.622 0 1 1-11.243 0V11.382a5.622 5.622 0 0 1 5.622-5.622m0-1a6.63 6.63 0 0 0-6.622 6.622v14.957a6.63 6.63 0 0 0 6.622 6.622 6.628 6.628 0 0 0 6.621-6.622V11.382a6.63 6.63 0 0 0-6.621-6.622z"/>
    <path fill="#EF5F31" d="M8.75 19.01v7.328a5.622 5.622 0 1 0 11.243 0V19.01H8.75z"/>
    <g stroke="#4A597F" stroke-miterlimit="10">
        <path fill="#E1E1F1" d="M64.75 4.665h27.764v34.56H64.75z"/>
        <path fill="#E1E1F1" d="M70.622 9.939h27.764v34.56H70.622z"/>
        <path fill="none" d="M72.88 12.49h16.309M76.843 14.674h16.309M72.38 29.51h16.31M72.626 16.656h16.31M72.372 22.854h23.88M72.27 24.938h23.88M72.321 27.173h23.88"/>
    </g>
    <g stroke="#4A597F" stroke-miterlimit="10">
        <circle fill="#E1E1F1" cx="140.133" cy="26.053" r="6.418"/>
        <circle fill="#E1E1F1" cx="140.078" cy="9.885" r="3.869"/>
        <circle fill="#E1E1F1" cx="126.214" cy="34.396" r="3.869"/>
        <circle fill="#E1E1F1" cx="153.087" cy="35.415" r="3.869"/>
        <path fill="none" d="M140.132 19.635l-.054-5.881"/>
        <circle fill="#F4784A" cx="125.139" cy="19.908" r="2.622"/>
        <circle fill="#83C441" cx="154.387" cy="19.718" r="2.622"/>
        <circle fill="#908FC6" cx="139.997" cy="41.498" r="2.622"/>
        <path fill="none" d="M134.361 23.26l-6.77-2.431M140.132 32.471l-.135 6.405M129.31 32.083l5.261-2.833M150.302 32.733l-4.802-3.164M145.796 23.034l6.25-2.134"/>
    </g>
    <circle fill="#FAEF59" stroke="#4A597F" stroke-miterlimit="10" cx="187.948" cy="22.697" r="12.031"/>
    <path fill="#179FDA" d="M197.386 28.176a5.58 5.58 0 0 1-5.573-5.572 5.58 5.58 0 0 1 5.573-5.573c3.073 0 5.572 2.5 5.572 5.573a5.578 5.578 0 0 1-5.572 5.572z"/>
    <path fill="#4A597F" d="M197.386 17.53a5.073 5.073 0 1 1-.002 10.146 5.073 5.073 0 0 1 .002-10.146m0-1a6.08 6.08 0 0 0-6.073 6.073 6.08 6.08 0 0 0 6.073 6.072 6.079 6.079 0 0 0 6.072-6.072 6.08 6.08 0 0 0-6.072-6.073z"/>
    <path fill="#83C441" d="M195.524 25.546a5.073 5.073 0 0 1 5.073-5.073c.523 0 1.017.102 1.492.249a5.067 5.067 0 0 0-9.776 1.881c0 2.277 1.513 4.183 3.581 4.823a5.023 5.023 0 0 1-.37-1.88z"/>
    <circle fill="#EF5F31" stroke="#4A597F" stroke-miterlimit="10" cx="203.011" cy="22.604" r="3.398"/>
    <circle fill="#908FC6" stroke="#4A597F" stroke-miterlimit="10" cx="210.698" cy="22.509" r="6.271"/>
    <path fill="none" stroke="#4A597F" stroke-miterlimit="10" d="M203.479 22.416h14.5"/>
    <path opacity=".4" fill="#FAEF59" d="M260.25 12.576c0 4.346-3.686 7.869-8.233 7.869h-13.113c-4.547 0-8.233-3.523-8.233-7.869s3.686-7.869 8.233-7.869h13.113c4.547 0 8.233 3.523 8.233 7.869z"/>
    <path fill="#70707A" d="M243.36 41.233v3.054h.643v.401h1.002v.467h1.742v-.467h1.008v-.401h.692v-3.054z"/>
    <path fill="#FAEF59" stroke="#4A597F" stroke-miterlimit="10" d="M238.436 13.632v4.08l14.346-.009v-4.071z"/>
    <path fill="#E1E1F1" stroke="#4A597F" stroke-miterlimit="10" d="M238.436 19.319s-.545 6.344 0 8.362c.34 1.261 2.629 4.517 2.629 4.517h1.043v6.144h.729v2.647h5.975v-2.647h.874v-6.144h.899s1.915-3.23 2.197-4.435c.481-2.056 0-8.444 0-8.444h-14.346z"/>
    <path fill="none" stroke="#4A597F" stroke-miterlimit="10" d="M276.417 4.374v30.25h34.75"/>
    <path fill="#FAEF59" stroke="#4A597F" stroke-miterlimit="10" d="M280.167 9.874h6.5v24.75h-6.5z"/>
    <path fill="#908FC6" stroke="#4A597F" stroke-miterlimit="10" d="M290.292 20.749h6.5v13.75h-6.5z"/>
    <path fill="#83C441" stroke="#4A597F" stroke-miterlimit="10" d="M300.292 13.624h6.5v20.875h-6.5z"/>
    <path fill="none" stroke="#4A597F" stroke-miterlimit="10" d="M327.202 14.967l1.981 1.54 2.967-3.71M327.362 30.881l1.981 1.54 2.968-3.71"/>
    <g fill="none" stroke="#4A597F" stroke-miterlimit="10">
        <path d="M327.728 24.617l3.913-4.25M327.644 20.563l4.24 3.911"/>
    </g>
    <g>
        <path fill="#E1E1F1" d="M24.766 43.203a6.088 6.088 0 0 1-4.279-1.745 6.13 6.13 0 0 1-.096-8.657l10.458-10.692a6.074 6.074 0 0 1 4.377-1.841 6.09 6.09 0 0 1 4.28 1.745 6.128 6.128 0 0 1 .096 8.656L29.144 41.361a6.078 6.078 0 0 1-4.378 1.842z"/>
        <path fill="#4A597F" d="M35.226 20.768a5.621 5.621 0 0 1 4.018 9.552L28.786 41.012a5.608 5.608 0 0 1-4.02 1.691 5.622 5.622 0 0 1-4.017-9.552l10.458-10.692a5.605 5.605 0 0 1 4.019-1.691m0-1a6.574 6.574 0 0 0-4.734 1.992L20.034 32.452a6.63 6.63 0 0 0 .104 9.364 6.584 6.584 0 0 0 4.628 1.887 6.57 6.57 0 0 0 4.735-1.992l10.458-10.692a6.628 6.628 0 0 0-.104-9.363 6.58 6.58 0 0 0-4.629-1.888z"/>
    </g>
    <path fill="#EF5F31" d="M25.873 27.912l-5.124 5.239a5.621 5.621 0 0 0 8.037 7.861l5.124-5.239-8.037-7.861z"/>
</svg>
