<svg xmlns="http://www.w3.org/2000/svg" viewBox="0 0 46 47.5"><path fill="#83C441" stroke="#000" stroke-miterlimit="10" d="M37.1 16.2c0 1.5-1.3 2.8-2.8 2.8H16.1c-1.5 0-2.8-1.3-2.8-2.8 0-1.5 1.3-2.8 2.8-2.8h18.1c1.6 0 2.9 1.2 2.9 2.8z"/><path fill="#EF5F31" stroke="#000" stroke-miterlimit="10" d="M37.1 23.9c0 1.5-1.3 2.8-2.8 2.8H16.1c-1.5 0-2.8-1.3-2.8-2.8 0-1.5 1.3-2.8 2.8-2.8h18.1c1.6 0 2.9 1.2 2.9 2.8z"/><path fill="#83C441" stroke="#000" stroke-miterlimit="10" d="M37.1 31.8c0 1.5-1.3 2.8-2.8 2.8H16.1c-1.5 0-2.8-1.3-2.8-2.8 0-1.5 1.3-2.8 2.8-2.8h18.1c1.6 0 2.9 1.3 2.9 2.8z"/><path fill="none" stroke="#83C441" stroke-miterlimit="10" d="M7.2 16.5l2 1.5 3-3.7M7.4 32.4l1.9 1.5 3-3.7"/><g fill="none" stroke="#EF5F31" stroke-miterlimit="10"><path d="M7.7 26.1l3.9-4.2M7.6 22.1l4.3 3.9"/></g></svg>