<svg xmlns="http://www.w3.org/2000/svg" viewBox="0 0 46 47.5"><path fill="#E1E1F1" d="M14.4 32.5c-3.4 0-6.1-2.7-6.1-6.1v-15c0-3.4 2.7-6.1 6.1-6.1 3.4 0 6.1 2.7 6.1 6.1v15c0 3.3-2.8 6.1-6.1 6.1z"/><path d="M14.4 5.8c3.1 0 5.6 2.5 5.6 5.6v15c0 3.1-2.5 5.6-5.6 5.6-3.1 0-5.6-2.5-5.6-5.6v-15c0-3.1 2.5-5.6 5.6-5.6m0-1c-3.7 0-6.6 3-6.6 6.6v15c0 3.7 3 6.6 6.6 6.6 3.7 0 6.6-3 6.6-6.6v-15c0-3.7-3-6.6-6.6-6.6z"/><path fill="#EF5F31" d="M8.8 19v7.3c0 3.1 2.5 5.6 5.6 5.6 3.1 0 5.6-2.5 5.6-5.6V19H8.8z"/><path fill="#E1E1F1" d="M24.8 43.2c-1.6 0-3.1-.6-4.3-1.7-2.4-2.4-2.5-6.2-.1-8.7l10.5-10.7c1.2-1.2 2.7-1.8 4.4-1.8 1.6 0 3.1.6 4.3 1.7 2.4 2.4 2.5 6.2.1 8.7L29.1 41.4c-1.1 1.1-2.7 1.8-4.3 1.8z"/><path d="M35.2 20.8c1.4 0 2.8.5 3.9 1.6 2.2 2.2 2.3 5.7.1 7.9L28.8 41c-1.1 1.1-2.6 1.7-4 1.7s-2.8-.5-3.9-1.6c-2.2-2.2-2.3-5.7-.1-7.9l10.5-10.7c1-1.2 2.5-1.7 3.9-1.7m0-1c-1.8 0-3.5.7-4.7 2L20 32.5c-2.6 2.6-2.5 6.8.1 9.4 1.2 1.2 2.9 1.9 4.6 1.9 1.8 0 3.5-.7 4.7-2L40 31c2.6-2.6 2.5-6.8-.1-9.4-1.3-1.2-2.9-1.8-4.7-1.8z"/><path fill="#EF5F31" d="M25.9 27.9l-5.1 5.2c-2.2 2.2-2.1 5.8.1 7.9 2.2 2.2 5.8 2.1 7.9-.1l5.1-5.2-8-7.8z"/></svg>