<svg xmlns="http://www.w3.org/2000/svg" viewBox="0 0 46 47.5">
    <circle fill="#FAEF59" stroke="#4A597F" stroke-miterlimit="10" cx="13.948" cy="24.363" r="12.031"/>
    <path fill="#179FDA" d="M23.386 29.842a5.58 5.58 0 0 1-5.573-5.572 5.58 5.58 0 0 1 5.573-5.573c3.073 0 5.572 2.5 5.572 5.573a5.578 5.578 0 0 1-5.572 5.572z"/>
    <path fill="#4A597F" d="M23.386 19.197a5.073 5.073 0 1 1-.002 10.146 5.073 5.073 0 0 1 .002-10.146m0-1a6.08 6.08 0 0 0-6.073 6.073 6.08 6.08 0 0 0 6.073 6.072 6.079 6.079 0 0 0 6.072-6.072 6.08 6.08 0 0 0-6.072-6.073z"/>
    <path fill="#83C441" d="M21.524 27.212a5.073 5.073 0 0 1 5.073-5.073c.523 0 1.017.102 1.492.249a5.067 5.067 0 0 0-9.776 1.881c0 2.277 1.513 4.183 3.581 4.823a5.023 5.023 0 0 1-.37-1.88z"/>
    <circle fill="#EF5F31" stroke="#4A597F" stroke-miterlimit="10" cx="29.011" cy="24.27" r="3.398"/>
    <circle fill="#908FC6" stroke="#4A597F" stroke-miterlimit="10" cx="36.698" cy="24.176" r="6.271"/>
    <path fill="none" stroke="#4A597F" stroke-miterlimit="10" d="M29.479 24.082h14.5"/>
</svg>
