<?xml version="1.0" encoding="UTF-8"?><svg id="a" xmlns="http://www.w3.org/2000/svg" viewBox="0 0 32 32"><path d="M22.09,4H9.91c-3.26,0-5.91,2.65-5.91,5.91v12.18c0,3.26,2.65,5.91,5.91,5.91h12.18c3.26,0,5.91-2.65,5.91-5.91V9.91c0-3.26-2.65-5.91-5.91-5.91Zm-3.5,21.15c-.56-.13-.03-2.95-.24-3.58-.2-.64-.22-.79-.6-1.25,3.73-.04,5.62-4.2,3.32-7.09,.47-1.46-.15-2.54-.15-2.54,0,0-1.51,.07-2.53,1.04-2.3-.78-4.74-.03-4.74-.03-1.42-1.01-2.57-1.01-2.57-1.01,0,0-.55,.65-.15,2.54-2.17,2.65-.6,7.01,3.37,7.12-.5,.39-.48,.71-.59,1.23-2.26,.97-2.8-1.08-3.46-1.49-.38-.24-1.08-.39-1.21-.11-.13,.28,.69,.5,1.1,1.16,.31,.48,.28,1.02,1.23,1.6,.86,.52,2.28,.15,2.28,.15,.02,.97,.17,1.58-.15,2.15-.39,.69-6.94-2.34-6.94-8.9,0-6.01,5.09-9.29,9.37-9.29,4.77,0,9.51,3.47,9.51,9.18,0,6.99-6.29,9.25-6.85,9.12Z" fill="#F1EADB"/></svg>