<svg xmlns="http://www.w3.org/2000/svg" viewBox="0 0 46 47.5"><circle fill="#FAEF59" stroke="#000" stroke-miterlimit="10" cx="13.9" cy="24.4" r="12"/><path fill="#179FDA" d="M23.4 29.8c-3.1 0-5.6-2.5-5.6-5.6 0-3.1 2.5-5.6 5.6-5.6 3.1 0 5.6 2.5 5.6 5.6 0 3.1-2.5 5.6-5.6 5.6z"/><path d="M23.4 19.2c2.8 0 5.1 2.3 5.1 5.1s-2.3 5.1-5.1 5.1-5.1-2.3-5.1-5.1 2.3-5.1 5.1-5.1m0-1c-3.3 0-6.1 2.7-6.1 6.1 0 3.3 2.7 6.1 6.1 6.1 3.3 0 6.1-2.7 6.1-6.1 0-3.4-2.8-6.1-6.1-6.1z"/><path fill="#83C441" stroke="#000" stroke-miterlimit="10" d="M21.5 27.2c0-2.8 2.3-5.1 5.1-5.1.5 0 1 .1 1.5.2-.7-1.9-2.6-3.2-4.7-3.2-2.8 0-5.1 2.3-5.1 5.1 0 2.3 1.5 4.2 3.6 4.8-.2-.5-.4-1.1-.4-1.8z"/><circle fill="#EF5F31" stroke="#000" stroke-miterlimit="10" cx="29" cy="24.3" r="3.4"/><circle fill="#908FC6" stroke="#000" stroke-miterlimit="10" cx="36.7" cy="24.2" r="6.3"/><path fill="none" stroke="#000" stroke-miterlimit="10" d="M29.5 24.1H44"/></svg>